<svg xmlns="http://www.w3.org/2000/svg" viewBox="0 0 160 160" width="200" height="200" role="img" aria-label="LazyCodex mascot">
  <title>LazyCodex - sleepy terminal robot</title>
  <defs>
    <linearGradient id="bodyGrad" x1="24" y1="28" x2="136" y2="140" gradientUnits="userSpaceOnUse">
      <stop offset="0" stop-color="#202933"/>
      <stop offset="1" stop-color="#0b1015"/>
    </linearGradient>
    <linearGradient id="screenGrad" x1="52" y1="46" x2="108" y2="104" gradientUnits="userSpaceOnUse">
      <stop offset="0" stop-color="#11181f"/>
      <stop offset="1" stop-color="#05080b"/>
    </linearGradient>
    <linearGradient id="cloakGrad" x1="92" y1="56" x2="142" y2="140" gradientUnits="userSpaceOnUse">
      <stop offset="0" stop-color="#108d72"/>
      <stop offset="1" stop-color="#0b5f50"/>
    </linearGradient>
    <filter id="softGlow" x="-20%" y="-20%" width="140%" height="140%">
      <feGaussianBlur stdDeviation="2.2" result="b"/>
      <feMerge>
        <feMergeNode in="b"/>
        <feMergeNode in="SourceGraphic"/>
      </feMerge>
    </filter>
  </defs>
  <ellipse cx="80" cy="145" rx="44" ry="8" fill="#000" opacity="0.24"/>

  <g transform="translate(0,1)">
    <path d="M42 60c0-18 8-28 20-28h36c12 0 20 10 20 28v34c0 18-8 28-20 28H62c-12 0-20-10-20-28V60z" fill="url(#bodyGrad)" stroke="#2a3340" stroke-width="2"/>
    <path d="M102 56c10 0 18 7 18 18v22c0 12-5 24-14 34l-7-1c5-8 8-18 8-29V74c0-8-1-13-5-18z" fill="url(#cloakGrad)" opacity="0.92"/>

    <circle cx="80" cy="27" r="10" fill="#10a37f" stroke="#07261f" stroke-width="2"/>
    <rect x="76" y="33" width="8" height="14" rx="4" fill="#1b222a"/>

    <circle cx="30" cy="74" r="12" fill="#111820" stroke="#2a3340" stroke-width="2"/>
    <circle cx="30" cy="74" r="7" fill="#0d1115" stroke="#10a37f" stroke-width="2"/>
    <circle cx="130" cy="78" r="13" fill="#111820" stroke="#2a3340" stroke-width="2"/>
    <circle cx="130" cy="78" r="8" fill="#0d1115" stroke="#10a37f" stroke-width="2"/>
    <circle cx="130" cy="78" r="3.5" fill="#10a37f"/>

    <rect x="48" y="42" width="64" height="48" rx="14" fill="url(#screenGrad)" stroke="#2b3540" stroke-width="2"/>
    <rect x="52" y="46" width="56" height="40" rx="11" fill="#070b0f"/>

    <path d="M58 62c3 5 8 7 12 7s9-2 12-7" fill="none" stroke="#f5efe4" stroke-width="4.5" stroke-linecap="round" filter="url(#softGlow)"/>
    <path d="M88 62c3 5 8 7 12 7s9-2 12-7" fill="none" stroke="#f5efe4" stroke-width="4.5" stroke-linecap="round" filter="url(#softGlow)"/>
    <path d="M71 73c2.5 3 5.5 4 9 4s6.5-1 9-4" fill="none" stroke="#f5efe4" stroke-width="4" stroke-linecap="round" filter="url(#softGlow)"/>
    <path d="M57 52l8-6" stroke="#10a37f" stroke-width="4" stroke-linecap="round" filter="url(#softGlow)"/>
    <path d="M61 47h8" stroke="#10a37f" stroke-width="4" stroke-linecap="round" filter="url(#softGlow)"/>

    <circle cx="58" cy="46" r="3" fill="#10a37f"/>
    <circle cx="102" cy="46" r="3" fill="#10a37f"/>
    <circle cx="80" cy="88" r="4" fill="#10a37f"/>

    <path d="M58 100h44" stroke="#10a37f" stroke-opacity="0.22" stroke-width="3" stroke-linecap="round"/>
    <path d="M66 104v8" stroke="#10a37f" stroke-opacity="0.22" stroke-width="3" stroke-linecap="round"/>
    <path d="M80 102v12" stroke="#10a37f" stroke-opacity="0.28" stroke-width="3" stroke-linecap="round"/>
    <path d="M94 104v8" stroke="#10a37f" stroke-opacity="0.22" stroke-width="3" stroke-linecap="round"/>
    <path d="M69 104c-1 8-3 16-6 21" stroke="#10a37f" stroke-opacity="0.25" stroke-width="2.5" stroke-linecap="round"/>
    <path d="M91 104c1 8 3 16 6 21" stroke="#10a37f" stroke-opacity="0.25" stroke-width="2.5" stroke-linecap="round"/>

    <rect x="53" y="90" width="54" height="16" rx="8" fill="#0b1115" stroke="#2b3540" stroke-width="1.5"/>
    <rect x="45" y="104" width="24" height="30" rx="11" fill="#111820" stroke="#2a3340" stroke-width="2"/>
    <rect x="91" y="104" width="24" height="30" rx="11" fill="#111820" stroke="#2a3340" stroke-width="2"/>
    <path d="M46 116c4 6 12 9 22 9" fill="none" stroke="#10a37f" stroke-opacity="0.7" stroke-width="2.4" stroke-linecap="round"/>
    <path d="M90 116c4 6 12 9 22 9" fill="none" stroke="#10a37f" stroke-opacity="0.7" stroke-width="2.4" stroke-linecap="round"/>

    <path d="M114 135c6-9 6-20 6-28" fill="none" stroke="#0b5f50" stroke-width="12" stroke-linecap="round" opacity="0.6"/>
  </g>

  <text x="110" y="20" font-family="ui-monospace, Menlo, Consolas, monospace" font-size="18" font-weight="700" fill="#10a37f">z</text>
  <text x="120" y="12" font-family="ui-monospace, Menlo, Consolas, monospace" font-size="14" font-weight="700" fill="#10a37f" opacity="0.85">z</text>
  <text x="129" y="6" font-family="ui-monospace, Menlo, Consolas, monospace" font-size="10" font-weight="700" fill="#10a37f" opacity="0.7">z</text>
</svg>
